<svg xmlns="http://www.w3.org/2000/svg" width="223" height="143.969" viewBox="0 0 223 143.969">
  <defs>
    <style>
      .cls-1 {
        fill: #ba1f28;
        fill-rule: evenodd;
      }
    </style>
  </defs>
  <path id="M_de_Manager_1" data-name="M de Manager 1" class="cls-1" d="M1235.42,233.81c-28.04-22.153-8.55-6.465-35.35-28.126-21.58-17.909-53.13-43.784-53.79-43.784V195c0.12,12.708.22,40.017,0.15,45.765-26.32-20.8-11.41-8.68-31.66-25.044-2.5-1.835-5.46-4.107-10.34-8.05,0-.142.01-0.281,0.01-0.423-21-17.372-47.29-38.887-47.89-38.887v75.627c-2.66-1.326-15.28-10.614-17.94-11.941-11.46-8.649-11.52-7.885-23.91-17.912,0.19-34.786.21-64.854,0-93.539,1.05,1.4-2.74-10.443,15.94-13.932,13.28-1.464,20.34,4.839,37.86,19.9,12.5,9.975,24.84,19.828,36.08,28.836-0.01-14.277-.05-27.928-0.15-41.271,1.05,1.4-2.74-10.442,15.94-13.931,13.28-1.464,20.34,4.838,37.86,19.9,32.48,25.918,63.89,51.035,77.7,62.566C1236.07,188.274,1236.04,226.894,1235.42,233.81Z" transform="translate(-1013 -100.031)"/>
</svg>
