<svg id="Manager_by_Sonnos_sin_M" data-name="Manager by Sonnos sin M" xmlns="http://www.w3.org/2000/svg" width="176" height="41" viewBox="0 0 882.878 230.031">
  <defs>
    <style>
      .cls-1, .cls-2 {
        fill-rule: evenodd;
         fill: #dbdbdb;
      }
    </style>
  </defs>
  <path id="manager_1" data-name="manager 1" class="cls-1" d="M372.467,443.335c-4.538-16.757-8.03-33.52-12.568-50.278,0,0.349-1.048-.349-1.048,0-7.738,15.363-22.712,51.424-30.372,51.326-4.631-.072-10.06.073-12.568,0-5.806.326-21.713-33.769-30.373-51.326h-1.047l-12.568,50.278c-8.868,4.33-19.123,9.2-30.373,14.665,5.9-18.96,21.34-71.825,26.184-89.035,6.75-11.511,15.087-10.663,23.582-7.265,6.315,7.09,21.713,34.5,30.879,53.354,0.349-.7,29.345-51.849,30.372-51.326,5.389-5.981,17.112-5.8,20.947-1.047,3.8,0.708,17.873,54.04,25.136,80.654H372.467Zm89.023-81.7c7.515-3.881,15.317-2.7,19.9,0,20.322,26.383,39.725,54.571,57.6,81.7H443.685v-1.047c20.656-18.926,6.889-20.75,50.272-19.9v-1.047l-23.041-32.472v1.048l-30.373,40.851-7.331,12.569H402.839v-2.094C419.682,419.252,440.684,387.088,461.49,361.633Zm161.288-1.047c7.931-4.653,15.925-9.584,23.042-13.617-0.2,44.732.808,85.789-1.048,89.034-1.756,7.747-12.039,9.865-16.757,8.38-10.387-3.271-44.5-39.712-57.6-49.231v48.183c-6.569,4.545-13.545,8.808-23.041,14.665-0.195-25.006-.232-67.407,0-89.035,2-6.843,12.744-12.865,19.657-8.691,10.565,6.378,43.807,37.82,55.75,48.5V360.586Zm83.787,5.237c6.971-9.193,19.818-6.154,24.088-4.19,18.667,26.659,41.933,52.5,57.6,81.7H692.95v-1.047c20.655-18.926,6.888-20.75,50.271-19.9v-1.047L720.18,388.867v1.048c-10.123,13.615-19.2,27.235-29.341,40.848-2.852,4.107-5.714,8.651-8.363,12.572H652.1v-2.094C663.638,425.672,688.9,388.7,706.565,365.823Zm156.052,56.563V410.864H820.724v-2.095l14.662-16.759H888.8v51.325c-47.359-.734-112.009,10.449-105.071-48.928,4.723-40.42,48.077-33.938,107.166-33.821v1.047c-5.379,6.073-11.858,14.873-16.757,20.949H823.866c-6.788,2.4-10.08,5.323-14.663,10.475-1.144,5.985-3.741,13.425,1.048,19.9C816.945,424.772,839.7,422.168,862.617,422.386Zm39.8-61.8h95.307v2.095q-7.855,9.95-15.71,19.9H928.6v9.428h64.934v1.047l-13.615,17.807H928.6v11.522h69.124v2.095c-4.569,5.443-11.228,14.136-14.663,18.854H902.416V360.586Zm130.914,60.753v22h-26.18v-41.9l78.55-1.048a5.626,5.626,0,0,0,3.14-1.047c3.22-2.348,4.64-3.969,4.19-11.522a7.506,7.506,0,0,0-6.28-5.238H1008.2v-2.094q7.845-9.951,15.71-19.9h62.84c12.15,0.5,22.84,4.794,29.32,14.664,11.87,18.078-3.33,37.481-17.8,40.851,0.35,0.35.69,0.7,1.04,1.048l25.14,26.186h-34.56c-7.51-9.455-8.35-10.453-12.57-15.712C1070.07,418.592,1077.37,422.079,1033.33,421.339Z" transform="translate(-241.562 -346.969)"/>
  <path id="sonnos_1" data-name="sonnos 1" class="cls-2" d="M1076.2,527.486c22.25,0,44.35-3.226,47.62,16.189,0.68,4.016-.74,8.262-1.79,10.792-6.13,14.761-26.64,12.593-47.37,12.592H1034.2c0.26-.257.51-0.514,0.77-0.771q6.27-8.094,12.55-16.189h38.66c6.19,0,13.47.646,17.16-1.8a9.418,9.418,0,0,0,.25-5.653c-8.46-5.824-41.37.368-53.51-3.341-11.27-3.438-18.89-17.9-9.99-29.808,3-4.013,8.61-6.475,14.34-7.709l6.4-.771h61.2q-6.525,8.607-13.06,17.217h-36.62c-4.15,0-11.55-1.034-14.34.771-1.96,1.274-1.86,3.917-1.28,6.424C1060.83,528.279,1069.21,527.486,1076.2,527.486Zm-90.653,40.343c-31.369,4.7-62.721-11.74-52.75-44.712,3.977-13.15,14.584-18.807,28.68-21.842l12.291-1.285c19.68-.283,38.542,1.7,47.112,12.591,10.76,13.659,8.45,37.717-4.6,47.025C1007.95,565.542,998.451,565.9,985.547,567.829Zm-13.571-50.622c-5.509,2.018-10.957.728-15.108,3.6-6.649,4.6-6.823,21.364-.257,26.211,8.316,6.138,42.483,5.646,48.139-2.056,1.43-1.941,1.76-4.044,2.31-6.938C1011.22,515.919,991.017,516.932,971.976,517.207Zm-54.587,51.65c-7.884,3.953-14.5-4.272-18.437-7.452-12.29-10.963-22.535-20.13-34.825-31.093-0.086,0-.939-1.028-1.025-1.028v37.775c-0.4,2.883-18.465,12.6-19.717,9.25V525.687c0-5.932-1.067-14.386.768-19.016a11.833,11.833,0,0,1,1.793-3.6,9.593,9.593,0,0,1,5.377-2.827c8.727-1.614,12.577,4.933,16.645,8.223,11.692,10.363,22.364,19.959,34.057,30.322V502.046c-0.425-1.492,16.549-10.524,17.412-10.022,2.287,0.611,2.258,2.872,2.3,6.424,0.154,11.6,0,36.639,0,48.31C921.742,556.069,923.519,565.783,917.389,568.857Zm-89.58,0c-7.884,3.953-14.5-4.272-18.437-7.452-12.29-10.963-22.535-20.13-34.825-31.093-0.085,0-.939-1.028-1.024-1.028v37.775c-0.4,2.883-18.465,12.6-19.717,9.25V525.687c0-5.932-1.067-14.386.768-19.016a11.853,11.853,0,0,1,1.792-3.6,9.6,9.6,0,0,1,5.378-2.827c8.726-1.614,12.576,4.933,16.644,8.223,11.693,10.363,22.365,19.959,34.057,30.322V502.046c-0.424-1.492,16.549-10.524,17.413-10.022,2.287,0.611,2.257,2.872,2.3,6.424,0.155,11.6,0,36.639,0,48.31C832.163,556.069,833.94,565.783,827.809,568.857Zm-126.241-1.028c-31.369,4.7-62.722-11.74-52.75-44.712,3.977-13.15,14.584-18.807,28.679-21.842l12.292-1.285c19.68-.283,38.538,1.7,47.116,12.591,10.756,13.659,8.446,37.717-4.609,47.025C723.971,565.542,714.472,565.9,701.568,567.829ZM688,517.207c-5.508,2.018-10.956.728-15.108,3.6-6.648,4.6-6.823,21.364-.256,26.211,8.316,6.138,42.483,5.646,48.141-2.056,1.426-1.941,1.759-4.044,2.3-6.938C727.241,515.919,707.038,516.932,688,517.207Zm-96.537,49.852H551l0.768-.771L564.315,550.1h38.667c6.186,0,13.465.646,17.156-1.8a9.433,9.433,0,0,0,.256-5.653c-8.465-5.824-41.37.368-53.518-3.341-11.262-3.438-18.888-17.9-9.987-29.808,3-4.013,8.611-6.475,14.34-7.709l6.4-.771h61.2l-13.059,17.217H589.154c-4.151,0-11.556-1.034-14.34.771-1.965,1.274-1.861,3.917-1.28,6.424,4.093,2.849,12.479,2.056,19.461,2.056,22.259,0,44.352-3.226,47.629,16.189,0.678,4.016-.743,8.262-1.793,10.792C632.705,569.228,612.19,567.06,591.459,567.059Z" transform="translate(-241.562 -346.969)"/>
  <path id="By_1" data-name="By 1" class="cls-1" d="M441.2,567.9V544.18c8.844-.042,27.164-0.107,31.761,0,0.024-.672-0.024-3.766,0-4.518H440.234c0.642-.753,2.246-3.766,2.888-4.519,1.335-2.065,2.189-3.268,3.849-5.647,10.311,0.527,29.186-2.024,32.407,2.774,1.843,1.583,7.064,8.248-1.608,15.3,1.715,2.642,5.811.874,5.775,11.3C480.789,570.143,475.7,567.97,441.2,567.9Zm71.221,0h-9.624V555.475c-6.416-8.282-13.8-17.7-20.212-25.979h12.512l12.512,15.813c0.791-1,2.054-2.334,2.888-3.388,3.24-4.525,5.454-7.908,8.662-12.425h12.512l-19.25,25.979V567.9Zm-61.6-15.814v6.778c7.378-.377,12.558-0.029,20.212,0,2.343,0.082,2.855-1.569,2.886-3.361,0.025-3.289-.776-2.906-1.924-3.417H450.821Z" transform="translate(-241.562 -346.969)"/>
</svg>
