<svg id="MANAGER_logo" data-name="MANAGER logo" xmlns="http://www.w3.org/2000/svg" width="174.19" height="39.25" viewBox="0 0 174.19 39.25">
  <defs>
    <style>
      .cls-1 {
        fill: #ddd;
      }

      .cls-1, .cls-2 {
        fill-rule: evenodd;
      }

      .cls-2, .cls-3 {
        fill: #dbdbdb;
      }

      .cls-3 {
        font-size: 4.726px;
        text-anchor: middle;
        font-family: Ethnocentric;
      }
    </style>
  </defs>
  <path id="manager_1" data-name="manager 1" class="cls-1" d="M1148.67,178.312c-0.89-3.306-1.58-6.614-2.48-9.92,0,0.069-.2-0.069-0.2,0-1.53,3.031-4.48,10.146-5.99,10.127-0.92-.014-1.99.014-2.48,0-1.15.064-4.29-6.663-6-10.127h-0.2q-1.245,4.959-2.48,9.92c-1.75.855-3.78,1.816-6,2.894,1.17-3.741,4.21-14.172,5.17-17.567,1.33-2.272,2.98-2.1,4.65-1.434,1.25,1.4,4.29,6.807,6.1,10.527,0.06-.138,5.79-10.23,5.99-10.127,1.06-1.18,3.37-1.143,4.13-.207,0.75,0.14,3.53,10.663,4.96,15.914h-5.17Zm17.57-16.12a4.163,4.163,0,0,1,3.93,0c4.01,5.2,7.83,10.767,11.36,16.12h-18.8v-0.207c4.07-3.734,1.36-4.094,9.92-3.926v-0.207q-2.28-3.2-4.55-6.407v0.207q-3,4.029-5.99,8.06c-0.49.827-.97,1.654-1.45,2.48h-5.99V177.9C1157.99,173.56,1162.13,167.214,1166.24,162.192Zm31.82-.207c1.57-.918,3.14-1.891,4.55-2.687-0.04,8.826.16,16.927-.21,17.568-0.34,1.528-2.37,1.946-3.3,1.653-2.05-.645-8.78-7.835-11.37-9.714v9.507c-1.3.9-2.67,1.738-4.55,2.894-0.03-4.934-.04-13.3,0-17.567,0.4-1.351,2.52-2.539,3.88-1.715,2.09,1.258,8.65,7.462,11,9.568v-9.507Zm16.53,1.034c1.38-1.814,3.91-1.215,4.76-.827,3.68,5.26,8.27,10.359,11.36,16.12h-18.8v-0.207c4.07-3.734,1.36-4.094,9.92-3.926v-0.207c-1.52-2.135-3.03-4.271-4.55-6.407v0.207c-2,2.686-3.79,5.374-5.79,8.06-0.56.81-1.13,1.706-1.65,2.48h-5.99V177.9C1206.12,174.827,1211.11,167.533,1214.59,163.019Zm30.79,11.16v-2.274h-8.26v-0.413c0.96-1.1,1.93-2.2,2.89-3.307h10.54v10.127c-9.34-.145-22.1,2.062-20.73-9.654,0.93-7.975,9.48-6.7,21.14-6.673v0.207c-1.06,1.2-2.34,2.934-3.3,4.133h-9.92a6.169,6.169,0,0,0-2.89,2.067c-0.23,1.181-.74,2.649.2,3.927C1236.37,174.649,1240.86,174.136,1245.38,174.179Zm7.86-12.194h18.8V162.4c-1.03,1.309-2.07,2.618-3.1,3.927H1258.4v1.86h12.81v0.207c-0.89,1.171-1.79,2.342-2.68,3.513H1258.4v2.274h13.64v0.413c-0.9,1.074-2.21,2.789-2.89,3.72h-15.91V161.985Zm25.83,11.987v4.34h-5.17v-8.267l15.5-.206a1.11,1.11,0,0,0,.62-0.207c0.64-.463.91-0.783,0.83-2.273a1.489,1.489,0,0,0-1.24-1.034h-15.5v-0.413q1.545-1.963,3.1-3.927h12.4a6.881,6.881,0,0,1,5.78,2.894c2.34,3.566-.66,7.4-3.51,8.06l0.21,0.206q2.475,2.584,4.96,5.167h-6.82c-1.48-1.865-1.65-2.062-2.48-3.1C1286.32,173.43,1287.76,174.118,1279.07,173.972Z" transform="translate(-1122.84 -159.312)"/>
  <path id="sonnos_1" data-name="sonnos 1" class="cls-2" d="M1287.52,188.8c4.4,0,8.76-.636,9.4,3.194a4,4,0,0,1-.35,2.13c-1.21,2.912-5.26,2.484-9.35,2.484h-7.98l0.15-.152c0.83-1.065,1.65-2.13,2.48-3.194h7.62c1.23,0,2.66.127,3.39-.355a1.836,1.836,0,0,0,.05-1.116c-1.67-1.149-8.16.073-10.56-.659a3.783,3.783,0,0,1-1.97-5.881,4.782,4.782,0,0,1,2.83-1.521l1.26-.152h12.08l-2.58,3.4h-7.22c-0.82,0-2.28-.2-2.83.152a1.131,1.131,0,0,0-.26,1.267C1284.49,188.956,1286.15,188.8,1287.52,188.8Zm-17.88,7.96c-6.19.927-12.38-2.316-10.41-8.822,0.79-2.595,2.88-3.711,5.66-4.309l2.42-.254c3.89-.056,7.61.335,9.3,2.484,2.12,2.695,1.67,7.442-.91,9.279C1274.06,196.308,1272.18,196.378,1269.64,196.759Zm-2.68-9.988c-1.09.4-2.16,0.144-2.98,0.71-1.31.906-1.35,4.215-.05,5.171,1.64,1.211,8.38,1.114,9.5-.4a3.045,3.045,0,0,0,.45-1.369C1274.7,186.517,1270.72,186.717,1266.96,186.771Zm-10.77,10.191c-1.55.78-2.86-.843-3.64-1.47-2.42-2.163-4.44-3.972-6.87-6.135-0.01,0-.18-0.2-0.2-0.2v7.453c-0.08.569-3.64,2.487-3.89,1.825v-9.988c0-1.17-.21-2.838.15-3.752a2.329,2.329,0,0,1,.35-0.71,1.915,1.915,0,0,1,1.07-.557c1.72-.319,2.48.973,3.28,1.622,2.31,2.045,4.41,3.938,6.72,5.983v-7.25c-0.08-.295,3.26-2.077,3.44-1.978,0.45,0.121.44,0.567,0.45,1.268,0.03,2.288,0,7.229,0,9.532C1257.05,194.439,1257.4,196.355,1256.19,196.962Zm-17.67,0c-1.56.78-2.87-.843-3.64-1.47-2.43-2.163-4.45-3.972-6.87-6.135-0.02,0-.19-0.2-0.2-0.2v7.453c-0.08.569-3.65,2.487-3.9,1.825v-9.988c0-1.17-.21-2.838.16-3.752a2.329,2.329,0,0,1,.35-0.71,1.888,1.888,0,0,1,1.06-.557c1.72-.319,2.48.973,3.29,1.622,2.3,2.045,4.41,3.938,6.71,5.983v-7.25c-0.08-.295,3.27-2.077,3.44-1.978,0.45,0.121.45,0.567,0.46,1.268,0.03,2.288,0,7.229,0,9.532C1239.38,194.439,1239.73,196.355,1238.52,196.962Zm-24.91-.2c-6.19.927-12.38-2.316-10.41-8.822,0.78-2.595,2.88-3.711,5.66-4.309l2.42-.254c3.89-.056,7.61.335,9.3,2.484,2.12,2.695,1.67,7.442-.91,9.279C1218.03,196.308,1216.15,196.378,1213.61,196.759Zm-2.68-9.988c-1.09.4-2.16,0.144-2.98,0.71-1.31.906-1.35,4.215-.05,5.171,1.64,1.211,8.38,1.114,9.5-.4a3.172,3.172,0,0,0,.45-1.369C1218.67,186.517,1214.69,186.717,1210.93,186.771Zm-19.05,9.836h-7.98l0.15-.152c0.83-1.065,1.65-2.13,2.48-3.194h7.63c1.22,0,2.65.127,3.38-.355a1.836,1.836,0,0,0,.05-1.116c-1.67-1.149-8.16.073-10.56-.659a3.788,3.788,0,0,1-1.97-5.881,4.782,4.782,0,0,1,2.83-1.521l1.26-.152h12.08l-2.58,3.4h-7.22c-0.82,0-2.28-.2-2.83.152a1.113,1.113,0,0,0-.25,1.267c0.8,0.563,2.46.406,3.84,0.406,4.39,0,8.75-.636,9.39,3.194a4,4,0,0,1-.35,2.13C1200.02,197.035,1195.97,196.607,1191.88,196.607Z" transform="translate(-1122.84 -159.312)"/>
  <text id="BY" class="cls-3" transform="matrix(2.144, 0, 0, 2.144, 47.584, 37.159)">BY</text>
</svg>
